<?xml version="1.0" standalone="no"?>
<!DOCTYPE svg PUBLIC "-//W3C//DTD SVG 20010904//EN"
 "http://www.w3.org/TR/2001/REC-SVG-20010904/DTD/svg10.dtd">
<svg version="1.0" xmlns="http://www.w3.org/2000/svg"
 width="2750.000000pt" height="978.000000pt" viewBox="0 0 2750.000000 978.000000"
 preserveAspectRatio="xMidYMid meet">
<metadata>
Created by potrace 1.16, written by Peter Selinger 2001-2019
</metadata>
<g transform="translate(0.000000,978.000000) scale(0.100000,-0.100000)"
fill="#000000" stroke="none">
<path d="M4414 9466 c-19 -21 -22 -38 -27 -227 -4 -112 -12 -226 -18 -254 -6
-27 -14 -84 -17 -125 -4 -41 -11 -81 -16 -89 -5 -8 -10 -35 -12 -60 -2 -61
-21 -160 -32 -175 -5 -6 -12 -31 -16 -56 -3 -25 -9 -59 -12 -77 -9 -46 30 -83
88 -84 24 -1 718 -3 1543 -5 1516 -3 1611 -5 1694 -40 18 -8 47 -14 63 -14 17
0 56 -13 87 -28 31 -16 67 -32 81 -35 58 -14 138 -113 170 -212 19 -60 22 -84
17 -166 -3 -52 -12 -115 -20 -140 -8 -24 -27 -91 -42 -149 -14 -58 -31 -118
-36 -135 -5 -16 -20 -75 -33 -130 -14 -55 -31 -122 -39 -150 -8 -27 -20 -72
-25 -100 -15 -75 -27 -116 -44 -155 -9 -19 -19 -61 -22 -93 -3 -31 -12 -74
-20 -95 -27 -73 -46 -145 -46 -173 0 -16 -9 -43 -20 -61 -11 -18 -20 -43 -20
-54 0 -12 -7 -39 -16 -60 -9 -22 -20 -66 -25 -99 -7 -55 -40 -187 -69 -275 -6
-19 -25 -84 -40 -145 -16 -60 -36 -135 -45 -165 -8 -30 -15 -64 -15 -75 0 -11
-6 -31 -13 -45 -8 -14 -19 -48 -26 -75 -7 -27 -16 -54 -20 -60 -5 -5 -11 -32
-14 -60 -3 -27 -15 -79 -27 -115 -12 -36 -25 -83 -30 -105 -12 -59 -38 -165
-49 -205 -5 -19 -19 -71 -31 -115 -12 -44 -26 -96 -31 -115 -6 -19 -14 -51
-18 -70 -24 -102 -56 -221 -86 -315 -7 -22 -18 -67 -24 -100 -7 -33 -16 -69
-20 -80 -14 -32 -29 -96 -36 -144 -3 -24 -12 -56 -20 -72 -8 -15 -15 -41 -15
-57 0 -15 -4 -32 -8 -37 -9 -11 -24 -60 -40 -135 -15 -66 -62 -191 -83 -222
-11 -14 -19 -34 -19 -45 0 -23 -187 -219 -217 -228 -13 -3 -23 -10 -23 -15 0
-4 -17 -15 -37 -24 -21 -9 -53 -25 -71 -37 -19 -11 -61 -26 -94 -34 -32 -7
-69 -20 -81 -27 -27 -17 -118 -35 -252 -50 -104 -12 -1819 -28 -1864 -17 -53
12 -52 23 22 244 11 33 23 76 28 95 21 91 30 122 49 152 11 18 20 44 20 57 0
23 27 118 72 256 25 76 74 237 103 340 13 44 30 105 39 135 8 30 19 64 24 75
15 32 52 160 52 177 0 9 6 29 14 45 8 15 19 46 24 68 10 42 23 81 54 157 10
26 18 58 18 71 0 41 69 163 114 201 70 60 134 105 199 139 34 18 90 51 124 74
34 23 72 45 85 49 30 9 90 47 107 68 7 9 19 16 26 16 6 0 20 9 30 20 10 11 23
20 30 20 6 0 45 30 87 68 41 37 88 79 104 93 41 35 141 186 166 250 49 127 87
262 105 373 8 50 21 127 29 171 8 44 19 127 25 185 5 58 14 119 20 136 12 41
12 291 -1 299 -5 3 -10 17 -10 30 0 16 -18 43 -49 75 -40 42 -54 50 -84 50
-63 0 -157 -66 -183 -130 -8 -19 -26 -46 -39 -60 -20 -22 -115 -175 -115 -186
0 -2 -20 -38 -45 -78 -25 -41 -45 -79 -45 -84 0 -5 -9 -17 -20 -27 -11 -10
-20 -22 -20 -27 0 -25 -124 -191 -187 -250 -71 -67 -73 -68 -128 -68 -34 0
-65 6 -80 16 -13 8 -52 19 -86 24 -35 5 -75 18 -90 30 -16 11 -43 20 -61 20
-18 1 -47 9 -64 18 -36 20 -95 57 -109 69 -5 5 -28 17 -50 27 -61 29 -92 54
-186 148 -119 120 -164 218 -160 348 1 49 9 80 32 128 17 34 38 68 47 75 10 6
32 42 51 79 18 37 42 75 52 84 11 9 19 22 19 28 0 15 90 160 101 164 5 2 9 11
9 21 0 9 13 30 30 46 16 15 35 44 41 64 7 20 22 48 34 62 12 15 27 40 34 58 8
17 16 31 20 31 4 0 15 16 25 35 16 30 17 41 8 73 -16 52 -40 77 -96 102 -82
35 -187 22 -281 -33 -27 -16 -70 -41 -95 -55 -25 -14 -59 -37 -76 -51 -16 -15
-44 -33 -62 -40 -18 -7 -32 -17 -32 -22 0 -5 -6 -9 -12 -9 -7 0 -31 -16 -53
-35 -22 -19 -43 -35 -48 -35 -4 0 -13 -5 -20 -10 -19 -17 -139 -108 -167 -128
-14 -9 -35 -27 -48 -39 -13 -13 -28 -23 -33 -23 -33 0 -292 -254 -310 -305 -7
-19 -16 -35 -20 -35 -4 0 -12 -15 -19 -32 -8 -18 -19 -40 -26 -48 -20 -25 -64
-161 -64 -200 0 -21 -7 -57 -15 -80 -8 -23 -15 -55 -15 -69 0 -15 -5 -32 -11
-38 -9 -9 -9 -32 0 -90 7 -43 14 -99 15 -124 2 -25 9 -55 15 -67 6 -11 11 -31
11 -44 0 -30 58 -153 93 -199 15 -20 27 -42 27 -49 0 -7 6 -21 13 -29 23 -27
114 -186 122 -211 4 -14 13 -34 19 -45 32 -51 43 -121 41 -240 -3 -149 -13
-231 -33 -270 -16 -28 -33 -92 -51 -180 -4 -22 -15 -54 -24 -72 -9 -18 -17
-40 -17 -49 0 -18 -35 -131 -56 -181 -8 -17 -14 -46 -14 -65 0 -35 -15 -82
-43 -137 -9 -19 -17 -50 -17 -68 0 -20 -9 -46 -20 -60 -11 -14 -20 -36 -20
-48 0 -12 -7 -39 -15 -58 -8 -20 -15 -50 -15 -67 0 -17 -6 -41 -14 -53 -8 -12
-19 -40 -25 -62 -5 -22 -14 -53 -19 -70 -6 -16 -18 -57 -27 -90 -10 -33 -23
-73 -31 -90 -7 -16 -18 -59 -24 -94 -6 -35 -15 -71 -19 -80 -29 -57 -51 -114
-51 -128 0 -9 -9 -42 -19 -72 -11 -31 -24 -78 -29 -106 -16 -79 -64 -234 -97
-310 -8 -16 -19 -54 -25 -84 -7 -29 -21 -76 -31 -104 -11 -29 -19 -62 -19 -75
0 -13 -9 -42 -20 -64 -11 -23 -20 -52 -20 -65 0 -13 -7 -37 -15 -53 -8 -16
-20 -52 -26 -80 -6 -27 -15 -50 -20 -50 -5 0 -9 -12 -9 -26 0 -28 -19 -94 -55
-194 -13 -36 -27 -81 -30 -100 -4 -19 -20 -75 -36 -125 -16 -49 -29 -99 -29
-112 0 -13 -13 -52 -30 -86 -16 -35 -30 -77 -30 -93 0 -42 44 -80 98 -84 109
-9 3083 0 3287 9 348 15 547 29 685 46 69 9 155 19 191 24 36 4 71 11 78 15 6
4 41 8 78 8 44 0 77 6 97 18 17 9 51 20 76 24 25 4 68 11 95 16 94 16 223 58
245 80 3 3 19 6 35 7 29 1 116 31 197 67 21 9 42 16 48 16 6 0 28 9 48 19 20
11 69 35 107 53 39 18 96 50 128 71 32 21 72 43 90 49 18 6 48 26 67 44 20 19
41 34 47 34 21 0 263 228 308 290 17 23 52 67 78 98 26 31 61 83 78 116 17 34
38 70 48 81 9 11 23 34 30 50 24 55 54 120 73 156 10 20 18 43 18 50 0 8 6 25
13 39 7 14 19 45 26 70 7 25 22 67 32 94 10 27 19 61 19 77 0 16 11 62 25 103
14 41 25 87 25 103 0 15 9 52 20 81 11 29 20 64 20 78 0 14 7 39 17 57 9 18
22 57 29 87 7 30 22 86 33 125 12 38 21 84 21 102 0 19 11 55 24 81 14 26 28
74 31 107 4 33 15 87 25 120 24 79 33 116 35 140 2 29 25 96 43 123 8 12 16
44 18 69 1 26 9 63 18 83 8 19 22 71 31 115 10 44 22 88 27 98 5 10 16 56 24
102 8 47 23 104 33 128 10 24 22 63 25 87 4 25 16 72 26 105 24 80 94 352 130
505 4 19 13 49 19 65 23 65 44 142 51 190 5 28 15 70 24 95 15 41 48 164 112
410 14 52 31 115 39 140 7 25 28 108 46 185 17 77 41 167 52 200 11 33 24 83
28 110 4 28 17 77 29 110 12 33 25 83 30 110 4 28 20 93 35 145 23 81 27 121
32 265 6 188 -9 315 -47 392 -11 23 -20 47 -20 53 0 6 -14 31 -30 55 -16 24
-30 47 -30 50 0 4 -22 35 -49 69 -65 80 -187 198 -286 274 -76 59 -380 212
-420 212 -9 0 -30 7 -46 16 -17 8 -65 24 -107 35 -43 11 -97 27 -122 36 -25 8
-67 19 -95 23 -27 5 -75 15 -105 24 -30 9 -78 16 -106 16 -28 0 -54 3 -58 7
-13 13 -119 32 -186 33 -36 0 -85 5 -110 11 -111 25 -496 31 -2095 35 l-1670
3 -21 -23z"/>
<path d="M15571 9062 c-19 -9 -44 -30 -55 -45 -20 -27 -21 -43 -24 -305 -2
-249 -1 -281 15 -312 52 -102 278 -109 336 -11 9 16 20 57 23 90 l7 61 -45 0
-45 0 -5 -52 c-7 -67 -31 -88 -102 -88 -42 0 -57 5 -74 23 -20 21 -22 34 -22
135 l0 112 146 0 146 0 -4 153 c-4 175 -14 204 -83 237 -54 26 -165 27 -214 2z
m184 -83 c17 -16 21 -36 23 -124 l4 -105 -101 0 -101 0 0 99 c0 55 3 107 6
116 18 45 128 55 169 14z"/>
<path d="M16961 9062 c-19 -9 -44 -30 -55 -45 -20 -27 -21 -43 -24 -305 -2
-249 -1 -281 15 -312 52 -102 278 -109 336 -11 9 16 20 57 23 90 l7 61 -45 0
-45 0 -5 -52 c-7 -67 -31 -88 -102 -88 -42 0 -57 5 -74 23 -20 21 -22 34 -22
135 l0 112 146 0 146 0 -4 153 c-4 175 -14 204 -83 237 -54 26 -165 27 -214 2z
m184 -83 c17 -16 21 -36 23 -124 l4 -105 -101 0 -101 0 0 99 c0 55 3 107 6
116 18 45 128 55 169 14z"/>
<path d="M18735 9068 c-11 -6 -32 -22 -47 -36 l-28 -26 -11 32 c-7 21 -18 32
-30 32 -18 0 -19 -13 -19 -365 l0 -365 40 0 40 0 0 283 c0 262 1 284 20 314
26 44 63 65 111 67 32 0 45 -5 60 -23 18 -22 19 -44 19 -332 l0 -309 46 0 45
0 -3 323 c-3 299 -4 324 -23 354 -10 18 -33 39 -51 48 -37 17 -140 20 -169 3z"/>
<path d="M19241 9062 c-19 -9 -44 -30 -55 -45 -20 -27 -21 -43 -24 -305 -2
-249 -1 -281 15 -312 53 -104 277 -109 338 -8 16 28 20 56 23 176 l4 142 -111
0 -111 0 0 -40 0 -40 66 0 66 0 -4 -96 c-3 -86 -5 -98 -27 -115 -35 -29 -121
-26 -149 4 -21 23 -22 30 -22 276 0 148 4 260 10 271 23 43 130 49 166 9 9
-10 19 -41 22 -69 l5 -50 45 0 45 0 -7 61 c-8 77 -30 114 -81 139 -54 26 -165
27 -214 2z"/>
<path d="M21311 9062 c-19 -9 -44 -30 -55 -45 -20 -27 -21 -43 -24 -305 -2
-249 -1 -281 15 -312 52 -102 278 -109 336 -11 9 16 20 57 23 90 l7 61 -45 0
-45 0 -5 -52 c-7 -67 -31 -88 -102 -88 -42 0 -57 5 -74 23 -20 21 -22 34 -22
135 l0 112 146 0 146 0 -4 153 c-4 175 -14 204 -83 237 -54 26 -165 27 -214 2z
m184 -83 c17 -16 21 -36 23 -124 l4 -105 -101 0 -101 0 0 99 c0 55 3 107 6
116 18 45 128 55 169 14z"/>
<path d="M21853 9061 c-51 -24 -76 -68 -77 -136 -1 -87 8 -103 151 -247 132
-133 136 -138 141 -186 4 -44 2 -51 -23 -70 -41 -33 -127 -31 -160 3 -22 21
-25 33 -25 90 l0 65 -46 0 -47 0 5 -77 c3 -46 12 -92 22 -111 24 -47 83 -72
171 -72 155 0 223 86 184 235 -8 32 -36 65 -139 167 -158 154 -178 194 -126
254 20 24 31 28 76 28 45 0 56 -4 76 -28 20 -22 24 -38 24 -92 l0 -64 46 0 47
0 -5 85 c-5 96 -21 128 -79 157 -47 25 -160 24 -216 -1z"/>
<path d="M14970 8705 l0 -365 40 0 40 0 0 125 0 125 43 0 42 0 63 -125 62
-125 50 0 50 0 -66 131 c-36 72 -64 132 -62 133 2 1 16 10 31 20 45 28 57 71
57 201 0 206 -40 244 -257 245 l-93 0 0 -365z m241 256 c16 -20 19 -41 19
-136 0 -111 -1 -114 -26 -134 -21 -16 -41 -21 -90 -21 l-64 0 0 161 0 161 71
-4 c60 -3 74 -8 90 -27z"/>
<path d="M15990 9063 c0 -5 36 -167 80 -362 44 -194 80 -355 80 -357 0 -2 29
-4 64 -4 53 0 66 3 70 18 10 36 156 691 156 701 0 6 -19 11 -42 11 l-43 0 -70
-310 -69 -310 -70 310 -70 310 -43 0 c-24 0 -43 -3 -43 -7z"/>
<path d="M16590 8705 l0 -365 40 0 40 0 0 365 0 365 -40 0 -40 0 0 -365z"/>
<path d="M17434 9056 c-3 -8 -4 -154 -2 -325 3 -294 4 -311 24 -337 43 -58 69
-69 159 -69 71 0 88 3 114 23 l32 23 32 -23 c46 -33 148 -37 211 -9 37 16 51
29 66 63 18 40 20 67 20 356 l0 312 -45 0 -45 0 0 -309 c0 -297 -1 -309 -21
-335 -18 -22 -28 -26 -75 -26 -41 0 -59 5 -74 20 -19 19 -20 33 -20 335 l0
315 -45 0 -44 0 -3 -316 -3 -316 -24 -19 c-15 -13 -39 -19 -71 -19 -32 0 -56
6 -71 19 l-24 19 -3 316 -3 316 -40 0 c-25 0 -42 -5 -45 -14z"/>
<path d="M18300 8705 l0 -365 40 0 40 0 0 365 0 365 -40 0 -40 0 0 -365z"/>
<path d="M20000 8705 l0 -365 145 0 145 0 0 35 0 35 -105 0 -105 0 0 330 0
330 -40 0 -40 0 0 -365z"/>
<path d="M20410 8705 l0 -365 40 0 40 0 0 365 0 365 -40 0 -40 0 0 -365z"/>
<path d="M20640 9063 c0 -5 36 -167 80 -362 44 -194 80 -355 80 -357 0 -2 29
-4 64 -4 53 0 66 3 70 18 10 36 156 691 156 701 0 6 -19 11 -42 11 l-43 0 -70
-310 -69 -310 -70 310 -70 310 -43 0 c-24 0 -43 -3 -43 -7z"/>
<path d="M20140 4685 l0 -2015 860 0 860 0 0 190 0 190 -620 0 -620 0 0 1825
0 1825 -240 0 -240 0 0 -2015z"/>
<path d="M22460 6515 l0 -185 170 0 170 0 0 -1640 0 -1640 -170 0 -170 0 0
-190 0 -190 580 0 580 0 0 190 0 190 -170 0 -170 0 0 1640 0 1640 170 0 170 0
0 185 0 185 -580 0 -580 0 0 -185z"/>
<path d="M25351 6663 c-6 -21 -64 -256 -130 -523 -66 -267 -284 -1152 -485
-1967 -201 -815 -366 -1486 -366 -1492 0 -8 74 -11 240 -11 l239 0 10 38 c6
20 53 213 106 427 53 215 100 407 106 428 l10 37 639 0 639 0 10 -37 c6 -21
56 -222 111 -448 56 -225 103 -418 106 -427 5 -17 25 -18 245 -18 189 0 239 3
239 13 0 7 -222 913 -494 2012 l-494 2000 -360 3 -361 2 -10 -37z m639 -1572
c148 -601 270 -1096 270 -1102 0 -5 -209 -9 -546 -9 -433 0 -545 3 -542 13 3
6 126 503 274 1104 148 600 270 1090 271 1089 2 -1 124 -494 273 -1095z"/>
<path d="M10510 4636 l0 -2026 568 0 c319 0 605 4 652 10 247 30 415 104 555
244 96 97 153 199 193 343 l27 98 3 1260 c2 865 0 1290 -8 1355 -45 392 -292
640 -714 717 -76 14 -188 17 -683 20 l-593 4 0 -2025z m1071 1634 c212 -21
356 -118 443 -300 l31 -65 0 -1275 0 -1275 -37 -78 c-68 -142 -192 -238 -353
-272 -53 -11 -147 -15 -392 -15 l-323 0 0 1645 0 1645 268 0 c147 0 310 -5
363 -10z"/>
<path d="M13650 4635 l0 -2025 220 0 220 0 0 930 0 930 610 0 610 0 0 -930 0
-930 220 0 220 0 0 2025 0 2025 -220 0 -220 0 0 -905 0 -905 -610 0 -610 0 0
905 0 905 -220 0 -220 0 0 -2025z"/>
<path d="M16840 4635 l0 -1965 1215 0 1215 0 0 185 0 185 -925 0 -925 0 0 720
0 720 720 0 720 0 0 185 0 185 -720 0 -720 0 0 690 0 690 885 0 885 0 -2 183
-3 182 -1172 3 -1173 2 0 -1965z"/>
<path d="M20092 1629 c-100 -19 -152 -85 -152 -189 0 -92 31 -140 185 -285 73
-69 140 -141 149 -159 50 -106 -27 -194 -145 -167 -68 15 -83 38 -87 131 l-4
80 -49 0 -49 0 0 -83 c0 -161 58 -217 225 -217 74 0 99 4 135 22 66 34 84 66
88 152 6 112 -10 140 -179 303 -78 76 -148 152 -155 170 -22 51 -17 89 15 125
27 30 34 33 90 33 53 0 64 -4 88 -28 25 -24 28 -36 31 -107 l4 -80 49 0 49 0
0 83 c-1 139 -44 199 -157 217 -66 11 -71 11 -131 -1z"/>
<path d="M21272 1630 c-55 -12 -99 -37 -126 -73 -20 -28 -21 -38 -21 -370 l0
-342 24 -34 c37 -51 90 -71 197 -71 116 0 167 23 202 90 21 43 22 52 22 360 0
307 -1 316 -23 355 -39 70 -163 108 -275 85z m132 -94 c66 -27 66 -29 66 -353
0 -288 0 -292 -22 -318 -47 -54 -165 -53 -207 2 -20 25 -21 38 -21 325 l0 299
26 24 c38 36 103 44 158 21z"/>
<path d="M14310 1190 l0 -430 50 0 50 0 0 195 0 195 125 0 125 0 0 -195 0
-195 50 0 50 0 0 430 0 430 -50 0 -50 0 0 -190 0 -190 -125 0 -125 0 0 190 0
190 -50 0 -50 0 0 -430z"/>
<path d="M15120 1617 c0 -2 -43 -192 -95 -422 -52 -230 -95 -422 -95 -427 0
-4 22 -8 49 -8 56 0 50 -8 76 113 l17 77 122 0 121 0 21 -92 20 -93 53 -3 c52
-3 53 -2 48 20 -4 12 -48 206 -98 430 l-93 408 -73 0 c-40 0 -73 -2 -73 -3z
m167 -573 c-2 -3 -47 -3 -99 -2 l-95 3 29 125 c15 69 38 167 50 219 l21 95 49
-218 c28 -120 48 -220 45 -222z"/>
<path d="M15640 1190 l0 -430 50 0 50 0 0 150 0 150 48 0 48 0 74 -150 74
-150 59 0 59 0 -81 154 -80 153 37 24 c62 40 72 73 72 242 0 167 -8 199 -62
241 -44 33 -113 46 -244 46 l-104 0 0 -430z m255 325 c46 -23 55 -51 55 -180
0 -165 -11 -181 -135 -192 l-75 -6 0 197 0 196 61 0 c34 0 75 -7 94 -15z"/>
<path d="M16280 1189 l0 -430 159 3 c143 3 162 5 188 24 78 58 87 109 81 465
-4 256 -7 271 -67 322 -41 34 -109 47 -246 47 l-115 0 0 -431z m291 303 l29
-32 0 -273 c0 -302 -1 -306 -66 -333 -18 -8 -61 -14 -94 -14 l-60 0 0 346 0
346 81 -4 c77 -3 82 -5 110 -36z"/>
<path d="M16865 1598 c3 -13 30 -192 60 -398 31 -206 58 -390 61 -407 l6 -33
68 0 68 0 11 48 c5 26 33 170 62 320 30 151 56 265 60 255 3 -10 32 -154 65
-321 l58 -303 71 3 70 3 62 410 c34 226 62 418 62 428 1 14 -8 17 -49 17 -48
0 -49 -1 -55 -32 -3 -18 -26 -170 -50 -338 -25 -168 -47 -309 -48 -313 -1 -4
-31 140 -65 320 -35 180 -66 336 -68 346 -4 13 -16 17 -58 17 l-52 0 -63 -327
c-35 -181 -66 -331 -70 -335 -4 -4 -29 143 -56 327 l-50 335 -53 0 c-49 0 -52
-1 -47 -22z"/>
<path d="M17930 1617 c0 -2 -43 -192 -95 -422 -52 -230 -95 -422 -95 -427 0
-4 22 -8 49 -8 56 0 50 -8 76 113 l17 77 122 0 121 0 21 -92 20 -93 53 -3 c52
-3 53 -2 48 20 -4 12 -48 206 -98 430 l-93 408 -73 0 c-40 0 -73 -2 -73 -3z
m167 -573 c-2 -3 -47 -3 -99 -2 l-95 3 29 125 c15 69 38 167 50 219 l21 95 49
-218 c28 -120 48 -220 45 -222z"/>
<path d="M18450 1190 l0 -430 50 0 50 0 0 150 0 150 48 0 48 0 74 -150 74
-150 59 0 59 0 -81 154 -80 153 37 24 c62 40 72 73 72 242 0 167 -8 199 -62
241 -44 33 -113 46 -244 46 l-104 0 0 -430z m255 325 c46 -23 55 -51 55 -180
0 -165 -11 -181 -135 -192 l-75 -6 0 197 0 196 61 0 c34 0 75 -7 94 -15z"/>
<path d="M19080 1190 l0 -430 195 0 195 0 0 40 0 40 -145 0 -145 0 0 155 0
155 115 0 115 0 0 45 0 45 -115 0 -115 0 0 145 0 145 140 0 140 0 0 45 0 45
-190 0 -190 0 0 -430z"/>
<path d="M20530 1575 l0 -45 85 0 85 0 0 -385 0 -385 55 0 55 0 0 385 0 385
85 0 85 0 0 45 0 45 -225 0 -225 0 0 -45z"/>
<path d="M21820 1190 l0 -430 50 0 50 0 0 150 0 150 48 0 48 0 74 -150 74
-150 59 0 59 0 -81 154 -80 153 37 24 c62 40 72 73 72 242 0 167 -8 199 -62
241 -44 33 -113 46 -244 46 l-104 0 0 -430z m255 325 c46 -23 55 -51 55 -180
0 -165 -11 -181 -135 -192 l-75 -6 0 197 0 196 61 0 c34 0 75 -7 94 -15z"/>
<path d="M22450 1190 l0 -430 195 0 195 0 0 40 0 40 -145 0 -145 0 0 155 0
155 115 0 115 0 0 45 0 45 -115 0 -115 0 0 145 0 145 140 0 140 0 0 45 0 45
-190 0 -190 0 0 -430z"/>
<path d="M13650 1195 l0 -45 200 0 200 0 0 45 0 45 -200 0 -200 0 0 -45z"/>
<path d="M23030 1195 l0 -45 200 0 200 0 0 45 0 45 -200 0 -200 0 0 -45z"/>
</g>
</svg>
