<?xml version="1.0" standalone="no"?>
<!DOCTYPE svg PUBLIC "-//W3C//DTD SVG 20010904//EN"
 "http://www.w3.org/TR/2001/REC-SVG-20010904/DTD/svg10.dtd">
<svg version="1.0" xmlns="http://www.w3.org/2000/svg"
 width="5501.000000pt" height="1956.000000pt" viewBox="0 0 5501.000000 1956.000000"
 preserveAspectRatio="xMidYMid meet">
<metadata>
Created by potrace 1.16, written by Peter Selinger 2001-2019
</metadata>
<g transform="translate(0.000000,1956.000000) scale(0.161842,-0.144568)"
fill="#000000" stroke="none">
<path d="M5500 12427 c-55 -14 -60 -33 -61 -232 0 -196 -9 -302 -33 -410 -9
-38 -15 -95 -15 -126 1 -30 -4 -66 -11 -80 -8 -13 -17 -58 -22 -99 -15 -142
-24 -190 -36 -202 -7 -7 -12 -26 -12 -43 0 -17 -7 -55 -16 -85 -17 -57 -9 -90
25 -107 9 -4 880 -11 1936 -14 1056 -3 1934 -9 1950 -13 17 -4 57 -12 90 -18
33 -6 68 -15 79 -20 10 -6 45 -14 78 -18 33 -5 83 -20 112 -33 28 -14 75 -35
104 -47 35 -15 71 -43 112 -86 69 -74 81 -94 115 -199 36 -112 32 -269 -11
-413 -47 -159 -66 -228 -94 -342 -66 -264 -83 -326 -92 -344 -5 -10 -14 -48
-19 -85 -5 -36 -27 -118 -48 -181 -22 -63 -42 -140 -45 -170 -3 -31 -21 -105
-41 -165 -19 -60 -35 -125 -35 -143 0 -18 -11 -55 -25 -82 -14 -27 -25 -56
-25 -63 0 -8 -11 -49 -25 -91 -14 -42 -25 -95 -25 -117 0 -22 -9 -65 -20 -96
-11 -32 -20 -64 -20 -73 0 -8 -16 -65 -36 -125 -20 -61 -40 -130 -44 -155 -4
-25 -20 -85 -35 -135 -15 -49 -35 -126 -45 -170 -10 -44 -35 -129 -54 -189
-20 -60 -36 -119 -36 -130 0 -12 -14 -70 -31 -131 -17 -60 -37 -135 -45 -165
-7 -30 -18 -75 -25 -100 -6 -25 -23 -90 -36 -145 -33 -131 -66 -253 -108 -401
-19 -67 -35 -130 -35 -140 0 -11 -9 -46 -19 -79 -27 -82 -67 -228 -82 -300 -7
-33 -16 -64 -20 -70 -12 -17 -49 -160 -49 -191 0 -16 -9 -56 -19 -89 -18 -55
-47 -155 -85 -295 -22 -84 -53 -168 -85 -235 -16 -33 -32 -71 -36 -85 -10 -34
-220 -257 -264 -281 -20 -11 -77 -44 -128 -74 -58 -35 -115 -60 -158 -70 -36
-8 -80 -22 -97 -31 -55 -28 -194 -56 -373 -74 -56 -5 -566 -12 -1150 -14 -577
-3 -1069 -5 -1093 -7 -35 -1 -49 4 -73 27 -16 15 -29 37 -29 48 0 25 44 171
72 241 11 28 26 75 33 105 26 110 53 196 74 230 11 19 21 51 21 70 0 19 13 75
29 125 16 49 52 164 80 255 29 91 61 194 72 230 12 35 29 96 39 136 17 64 49
169 112 358 11 33 23 78 28 100 4 23 13 55 19 71 5 17 17 50 25 75 38 117 48
147 62 175 7 17 21 66 30 110 33 163 164 304 404 436 52 29 120 69 150 89 30
20 80 48 110 62 30 14 74 40 97 59 23 19 74 54 113 79 72 45 159 118 255 215
59 59 163 212 182 268 7 21 23 57 34 78 11 22 33 92 50 156 17 65 32 120 35
124 2 4 8 35 14 70 5 35 17 100 25 144 14 74 20 112 46 295 24 172 30 236 35
380 7 200 -5 253 -73 322 -42 43 -52 48 -90 48 -24 0 -55 -8 -69 -17 -14 -9
-40 -24 -56 -33 -19 -10 -44 -40 -63 -75 -18 -32 -46 -75 -61 -94 -33 -41
-129 -200 -172 -286 -9 -16 -31 -52 -49 -79 -18 -26 -33 -53 -33 -58 0 -5 -11
-24 -25 -42 -14 -18 -25 -36 -25 -40 0 -22 -132 -201 -198 -269 -115 -120
-111 -117 -214 -117 -59 0 -99 5 -118 15 -15 8 -61 20 -102 26 -46 7 -86 19
-109 35 -19 13 -50 24 -67 24 -30 0 -119 38 -146 62 -17 15 -86 55 -136 79
-70 34 -137 88 -243 195 -79 80 -106 115 -138 181 -53 108 -70 189 -60 290 9
86 51 184 102 238 15 17 35 48 45 70 9 22 36 68 59 102 24 34 53 81 64 105 12
24 39 70 61 103 22 33 47 74 54 90 8 17 28 43 45 59 17 16 36 45 42 64 6 19
24 53 39 76 81 122 120 187 120 200 0 8 -9 35 -20 61 -18 41 -27 49 -85 76
-109 49 -210 37 -345 -42 -41 -24 -88 -50 -103 -58 -15 -8 -45 -29 -66 -47
-20 -18 -55 -42 -77 -53 -37 -20 -83 -50 -174 -116 -22 -16 -82 -59 -133 -94
-51 -36 -101 -72 -112 -82 -60 -53 -93 -78 -122 -93 -18 -9 -40 -25 -50 -35
-10 -10 -54 -49 -98 -87 -85 -74 -192 -185 -212 -221 -22 -38 -90 -167 -106
-198 -28 -57 -50 -130 -57 -195 -4 -36 -14 -87 -24 -113 -9 -26 -16 -61 -16
-78 0 -16 -7 -43 -15 -59 -13 -25 -14 -41 -5 -97 6 -36 14 -71 17 -76 3 -5 5
-31 4 -58 0 -28 8 -71 19 -99 11 -28 20 -62 20 -75 0 -29 74 -191 100 -220 10
-11 38 -58 63 -105 25 -47 68 -123 96 -170 28 -47 51 -89 51 -95 0 -5 7 -23
16 -40 9 -16 26 -60 39 -97 22 -65 23 -74 14 -260 -9 -212 -17 -274 -42 -312
-9 -14 -17 -34 -17 -44 0 -10 -11 -52 -25 -92 -14 -40 -25 -84 -25 -96 0 -12
-11 -46 -25 -76 -14 -29 -25 -61 -25 -72 0 -24 -47 -179 -66 -214 -7 -15 -14
-47 -14 -71 0 -28 -15 -80 -40 -143 -22 -55 -40 -113 -40 -129 0 -17 -7 -40
-15 -53 -17 -25 -52 -142 -65 -216 -4 -25 -17 -67 -28 -95 -20 -51 -47 -139
-78 -255 -10 -36 -25 -81 -35 -100 -9 -19 -21 -64 -27 -100 -5 -36 -28 -110
-49 -165 -22 -55 -45 -127 -52 -160 -7 -33 -18 -69 -24 -80 -6 -11 -21 -65
-33 -120 -22 -102 -81 -287 -115 -361 -11 -23 -19 -51 -19 -62 0 -12 -18 -75
-40 -141 -22 -65 -40 -132 -40 -148 0 -15 -8 -41 -18 -58 -10 -16 -22 -52 -25
-79 -4 -27 -11 -54 -17 -61 -5 -6 -16 -36 -24 -67 -8 -31 -21 -70 -30 -86 -9
-17 -16 -41 -16 -54 0 -13 -6 -43 -14 -68 -8 -25 -24 -74 -36 -110 -12 -36
-32 -104 -45 -151 -13 -47 -40 -134 -59 -193 -20 -58 -36 -118 -36 -132 0 -14
-13 -56 -30 -94 -41 -93 -40 -139 3 -171 l32 -24 1905 2 c1048 1 2027 6 2175
11 418 16 694 30 705 37 5 3 43 10 83 16 153 20 244 30 292 33 28 2 82 11 121
20 39 8 94 15 121 15 27 -1 62 5 79 14 31 16 148 45 229 58 75 11 191 46 247
75 28 14 59 23 70 21 10 -3 42 5 71 18 29 12 67 26 85 30 18 3 52 17 75 30 23
13 58 26 77 30 19 4 46 16 59 26 13 11 29 19 36 19 21 0 210 96 261 133 27 19
73 44 103 56 30 11 71 36 91 56 20 20 51 43 68 53 45 25 316 285 365 351 23
31 63 80 88 109 26 30 66 90 89 135 24 45 53 94 65 108 12 15 27 42 34 60 7
19 18 43 24 54 42 78 147 338 147 367 0 18 25 86 44 123 9 17 13 38 10 48 -3
9 9 63 27 120 17 56 35 127 39 157 5 30 18 82 29 114 12 33 21 70 21 83 0 13
11 50 25 83 14 33 25 67 25 77 0 10 12 54 26 98 41 125 44 138 44 187 0 31 9
64 29 101 20 39 31 77 35 124 4 37 17 102 30 143 13 41 29 100 36 130 27 122
43 176 61 206 10 17 19 48 19 68 0 20 9 62 19 94 11 31 31 107 46 167 15 61
32 128 40 150 13 42 30 112 41 180 4 22 15 58 24 80 9 22 20 58 24 80 9 53 53
216 76 285 10 30 26 91 34 135 9 44 24 112 34 150 11 39 27 99 36 135 16 66
37 140 76 265 12 39 24 95 27 125 3 30 12 68 21 84 18 38 30 75 47 151 15 65
55 219 73 275 6 19 20 71 32 115 11 44 31 121 45 170 23 84 33 128 86 355 11
47 32 119 46 160 15 41 30 100 34 130 4 30 21 95 38 145 17 49 31 107 31 128
0 21 4 46 9 56 16 29 52 172 62 246 13 93 13 350 0 450 -22 170 -89 326 -204
475 -52 68 -195 210 -271 270 -32 25 -65 53 -75 62 -17 17 -81 55 -256 150
-85 46 -252 118 -275 118 -6 0 -36 11 -68 24 -31 13 -77 27 -102 31 -25 3 -81
19 -125 35 -44 15 -107 34 -140 40 -33 7 -87 19 -120 27 -33 8 -96 19 -140 23
-44 5 -100 14 -125 20 -25 6 -94 15 -155 20 -60 5 -157 18 -215 29 -75 14
-153 20 -274 21 -93 0 -174 4 -180 8 -15 10 -4078 19 -4116 9z"/>
<path d="M19305 11934 c-49 -12 -95 -38 -116 -68 l-24 -31 -3 -347 c-3 -384
-3 -383 60 -432 66 -49 209 -60 289 -20 63 31 84 68 88 161 l3 83 -40 0 c-45
0 -52 -10 -52 -70 0 -86 -50 -126 -148 -118 -47 4 -60 10 -84 37 l-29 32 3
142 3 142 173 3 172 2 0 180 c0 98 -4 189 -9 202 -25 65 -87 99 -190 104 -42
1 -85 1 -96 -2z m155 -91 c43 -25 50 -53 50 -189 l0 -125 -127 3 -128 3 -3
120 c-3 131 5 162 46 188 36 22 125 22 162 0z"/>
<path d="M21011 11931 c-40 -11 -77 -37 -105 -75 -20 -26 -21 -42 -24 -354 -2
-180 0 -342 3 -360 16 -86 118 -140 245 -129 85 7 133 30 167 81 22 34 27 52
27 111 l1 70 -39 3 c-48 4 -56 -7 -56 -74 0 -43 -4 -54 -31 -80 -28 -26 -36
-29 -100 -29 -67 0 -72 2 -100 33 l-29 32 0 145 0 145 181 0 181 0 -4 183 c-3
171 -5 184 -27 220 -33 53 -88 78 -180 83 -42 2 -91 -1 -110 -5z m169 -86 c16
-8 34 -24 40 -34 5 -11 10 -78 10 -150 l0 -131 -130 0 -130 0 0 129 c0 116 2
131 21 155 12 15 31 32 43 36 34 14 115 11 146 -5z"/>
<path d="M23175 11922 c-22 -11 -51 -31 -64 -46 -32 -35 -44 -33 -60 9 -8 24
-19 35 -32 35 -19 0 -19 -10 -17 -442 l3 -443 43 -3 42 -3 0 352 c0 336 1 353
21 388 47 85 173 121 224 65 l25 -27 0 -376 c0 -207 4 -382 9 -389 5 -8 23
-12 47 -10 l39 3 3 379 2 379 -24 52 c-28 62 -69 86 -160 92 -46 3 -71 -1
-101 -15z"/>
<path d="M23831 11931 c-40 -11 -77 -37 -105 -75 -20 -26 -21 -42 -24 -366 -3
-376 -2 -386 59 -433 47 -35 117 -51 194 -44 79 8 132 34 165 83 24 36 25 43
25 208 l0 171 -120 0 -120 0 -3 -37 -3 -38 75 0 76 0 0 -114 c0 -63 -4 -126
-9 -139 -24 -62 -166 -77 -219 -23 l-27 26 -3 303 c-4 341 0 366 52 391 47 22
123 21 163 -4 34 -20 41 -37 45 -110 l3 -45 45 0 45 0 -2 67 c-2 123 -62 177
-202 184 -42 2 -91 -1 -110 -5z"/>
<path d="M26391 11931 c-40 -11 -77 -37 -105 -75 -20 -26 -21 -42 -24 -364 -3
-334 -2 -337 20 -382 36 -70 89 -95 203 -95 156 1 218 55 219 189 l1 71 -42 3
-43 3 -1 -43 c-1 -99 -46 -149 -134 -147 -63 2 -88 12 -113 49 -21 32 -22 42
-20 169 l3 136 178 3 177 2 0 174 c0 161 -2 176 -23 217 -33 63 -86 90 -185
95 -42 2 -92 -1 -111 -5z m176 -91 c21 -13 35 -31 42 -57 13 -45 14 -222 3
-241 -7 -9 -40 -12 -133 -10 l-124 3 -3 120 c-2 106 0 124 18 153 11 18 30 37
43 42 40 16 120 11 154 -10z"/>
<path d="M27073 11931 c-115 -30 -168 -137 -131 -265 9 -33 45 -75 174 -206
90 -91 167 -178 173 -193 16 -41 13 -99 -5 -126 -48 -68 -207 -66 -242 2 -7
12 -13 56 -14 97 l-3 75 -45 0 -45 0 -2 -80 c-4 -147 56 -212 206 -223 132 -9
230 44 247 134 10 53 -1 159 -20 186 -9 12 -88 95 -176 183 l-160 161 0 61 c0
51 4 67 24 90 23 26 29 28 100 28 68 0 78 -3 102 -27 23 -23 27 -37 33 -110
l6 -83 40 0 40 0 3 80 c5 155 -47 214 -197 221 -42 2 -90 0 -108 -5z"/>
<path d="M18510 11475 l0 -445 45 0 45 0 0 148 c0 81 4 153 9 160 5 9 25 12
57 10 l49 -3 80 -155 80 -155 48 -3 c30 -2 47 1 47 8 0 6 -34 76 -75 155 -41
79 -75 149 -75 157 0 7 15 21 33 31 61 33 72 64 75 226 5 170 -6 218 -54 261
-47 41 -90 50 -236 50 l-128 0 0 -445z m260 356 c14 -4 35 -22 47 -40 21 -31
23 -46 23 -152 0 -184 -22 -213 -161 -207 l-74 3 -3 190 c-1 104 0 195 2 202
6 14 120 17 166 4z"/>
<path d="M19785 11911 c-5 -10 1 -43 50 -256 14 -60 36 -159 50 -220 14 -60
37 -162 51 -225 15 -63 29 -128 33 -145 7 -29 8 -30 74 -33 79 -3 74 -10 107
138 12 52 32 142 45 200 13 58 36 159 51 225 15 66 37 163 50 215 12 52 19 99
14 103 -4 5 -25 7 -46 5 l-39 -3 -22 -95 c-13 -52 -27 -115 -32 -140 -14 -71
-100 -451 -113 -495 -10 -38 -11 -39 -18 -15 -5 14 -20 79 -35 145 -36 159
-61 272 -85 375 -11 47 -27 118 -35 158 l-17 72 -38 0 c-21 0 -41 -4 -45 -9z"/>
<path d="M20515 11908 c-3 -7 -4 -206 -3 -443 l3 -430 42 -3 c37 -3 43 0 48
20 3 13 4 212 3 443 l-3 420 -43 3 c-28 2 -44 -1 -47 -10z"/>
<path d="M21567 11914 c-11 -11 -8 -695 3 -755 14 -70 55 -114 129 -136 80
-23 162 -13 218 26 l44 31 32 -23 c65 -49 143 -59 234 -32 67 20 119 76 128
137 3 24 5 203 3 398 l-3 355 -45 0 -45 0 -5 -385 c-3 -212 -8 -390 -12 -396
-13 -20 -75 -44 -113 -44 -47 0 -99 24 -114 53 -8 15 -12 138 -14 397 l-2 375
-45 0 -45 0 -2 -375 c-2 -259 -6 -382 -14 -397 -15 -29 -67 -53 -114 -53 -43
0 -100 24 -112 48 -4 9 -10 188 -13 397 l-5 380 -40 3 c-23 2 -44 0 -48 -4z"/>
<path d="M22632 11478 l3 -443 43 -3 42 -3 0 445 0 446 -45 0 -45 0 2 -442z"/>
<path d="M24735 11908 c-3 -7 -4 -206 -3 -443 l3 -430 168 -3 167 -2 0 39 0
40 -117 3 -118 3 -5 400 c-3 220 -7 401 -8 403 -8 8 -83 0 -87 -10z"/>
<path d="M25240 11475 l0 -445 45 0 45 0 0 445 0 445 -45 0 -45 0 0 -445z"/>
<path d="M25538 11915 c-5 -6 8 -76 41 -220 11 -44 31 -134 46 -200 14 -66 35
-156 45 -200 10 -44 26 -116 36 -160 9 -44 22 -86 27 -92 6 -8 34 -13 73 -13
l63 0 11 39 c6 21 14 59 19 82 24 115 62 283 65 288 2 3 13 51 25 106 12 55
33 150 47 210 37 157 37 159 -7 163 -21 2 -40 -2 -46 -10 -5 -7 -18 -49 -27
-93 -24 -108 -49 -218 -80 -350 -14 -60 -32 -141 -41 -180 -8 -38 -17 -80 -20
-92 -3 -13 -9 -23 -14 -23 -8 0 -21 49 -76 295 -15 66 -37 165 -50 220 -13 55
-26 116 -30 135 -17 89 -24 100 -64 100 -21 0 -40 -2 -43 -5z"/>
<path d="M24927 8993 c-4 -3 -7 -1124 -7 -2490 l0 -2483 1053 2 1052 3 0 220
0 220 -765 5 -765 5 -5 2260 -5 2260 -276 3 c-151 1 -278 -1 -282 -5z"/>
<path d="M27787 8993 c-4 -3 -7 -104 -7 -224 0 -188 2 -218 16 -223 9 -3 103
-6 210 -6 l194 0 -2 -2032 -3 -2033 -208 -3 -207 -2 2 -223 3 -222 703 -3 702
-2 0 225 0 225 -205 0 c-204 0 -205 0 -210 23 -3 12 -4 927 -3 2032 l3 2010
205 5 205 5 0 225 0 225 -696 3 c-382 1 -699 -1 -702 -5z"/>
<path d="M31383 8992 c-12 -7 -34 -76 -58 -182 -25 -110 -96 -402 -120 -490
-14 -54 -198 -798 -276 -1120 -22 -91 -51 -208 -65 -260 -23 -88 -64 -258
-325 -1320 -55 -223 -104 -421 -109 -440 -10 -35 -39 -153 -66 -265 -7 -33
-19 -78 -24 -100 -22 -82 -61 -242 -74 -300 -15 -64 -47 -193 -73 -290 -19
-72 -42 -175 -43 -192 0 -10 63 -13 285 -13 l285 0 6 28 c4 15 12 50 20 77 21
78 22 86 39 160 9 39 20 81 25 95 4 14 16 59 25 100 9 41 21 89 25 105 5 17
23 89 40 160 31 133 58 240 88 355 l17 65 805 0 805 0 22 -95 c24 -103 58
-243 94 -385 12 -49 54 -218 93 -375 l71 -285 288 -3 287 -2 -5 22 c-5 23 -40
167 -50 203 -2 11 -43 178 -90 370 -47 193 -91 373 -99 400 -8 28 -19 75 -26
105 -6 30 -17 75 -25 100 -7 25 -18 70 -25 100 -6 30 -18 78 -25 105 -8 28
-26 100 -40 160 -26 110 -53 219 -100 403 -13 53 -36 147 -50 207 -15 61 -33
133 -41 160 -8 28 -21 79 -29 115 -7 36 -25 110 -38 165 -122 498 -168 684
-177 710 -5 17 -18 68 -29 115 -11 47 -24 103 -30 125 -6 22 -33 135 -61 250
-28 116 -62 253 -75 305 -54 213 -77 305 -125 505 -70 289 -81 328 -92 343 -8
9 -106 12 -427 12 -229 0 -421 -4 -428 -8z m461 -737 c15 -60 31 -123 36 -140
5 -16 16 -61 25 -100 9 -38 22 -92 30 -120 7 -27 19 -75 25 -105 7 -30 18 -77
26 -105 12 -44 170 -682 315 -1275 28 -113 61 -245 74 -295 71 -278 116 -475
110 -484 -4 -8 -216 -11 -687 -11 l-681 0 7 47 c3 26 11 61 16 78 6 16 39 152
75 300 36 149 70 286 75 305 10 34 38 147 66 265 7 33 19 78 24 100 6 22 20
78 30 124 11 46 24 98 29 115 6 17 24 90 41 161 17 72 39 164 49 205 42 166
71 279 91 360 12 47 26 103 30 125 5 22 16 67 25 100 9 33 23 87 30 120 30
134 71 295 87 334 14 36 23 18 52 -104z"/>
<path d="M13002 6443 l3 -2498 575 -3 c730 -4 933 7 1140 64 322 89 547 283
655 564 23 61 38 123 64 266 14 76 16 3134 2 3197 -5 23 -15 74 -22 112 -13
76 -58 204 -97 275 -141 259 -431 444 -767 490 -44 6 -104 15 -134 20 -31 6
-348 10 -738 10 l-683 0 2 -2497z m1493 2004 c203 -69 364 -244 409 -444 14
-64 16 -229 16 -1562 0 -1655 3 -1569 -67 -1705 -49 -94 -165 -211 -253 -256
-36 -18 -103 -44 -150 -57 -82 -24 -100 -25 -486 -30 -293 -4 -407 -2 -422 6
l-22 12 0 2028 c0 1115 3 2031 7 2035 4 4 205 5 448 4 l440 -3 80 -28z"/>
<path d="M16882 6443 l3 -2498 240 -3 c132 -1 250 0 263 3 l22 5 0 1150 0
1150 760 0 760 0 2 -1152 3 -1153 265 0 265 0 0 2495 0 2495 -265 0 -265 0 -3
-1112 -2 -1113 -760 0 -760 0 -2 1113 -3 1112 -263 3 -262 2 2 -2497z"/>
<path d="M20840 6440 l0 -2410 1480 0 1480 0 0 205 0 205 -1127 0 c-621 0
-1134 4 -1141 8 -10 7 -12 196 -10 913 l3 904 885 5 885 5 3 207 2 208 -887 2
-888 3 0 870 0 870 1088 3 1087 2 0 205 0 205 -1430 0 -1430 0 0 -2410z"/>
<path d="M24865 2724 c-11 -3 -37 -10 -58 -15 -44 -11 -101 -59 -124 -103 -20
-38 -22 -164 -3 -221 10 -30 59 -87 205 -235 155 -157 195 -203 204 -235 15
-54 14 -81 -4 -119 -24 -50 -61 -66 -154 -66 -79 0 -83 1 -119 34 l-37 34 -3
97 -4 96 -51 -3 -52 -3 1 -100 c2 -117 16 -160 67 -200 49 -36 116 -55 202
-55 193 0 291 97 270 268 -12 96 -40 136 -217 306 -90 86 -173 170 -185 187
-50 71 -36 179 29 219 65 39 210 16 233 -37 5 -10 11 -61 14 -113 l6 -95 50 0
50 0 3 94 c6 185 -56 254 -238 266 -36 2 -74 2 -85 -1z"/>
<path d="M26293 2716 c-87 -21 -145 -69 -163 -135 -14 -51 -13 -754 1 -806 27
-97 135 -151 289 -143 114 5 172 33 215 103 l30 48 3 360 c3 387 -1 438 -44
494 -35 47 -65 63 -137 79 -76 16 -126 16 -194 0z m189 -101 c19 -8 44 -27 54
-42 18 -26 19 -51 19 -401 l0 -374 -37 -34 c-36 -33 -40 -34 -118 -34 -53 0
-91 5 -110 15 -59 30 -60 39 -60 438 0 358 0 365 22 392 12 15 35 33 52 41 41
18 135 18 178 -1z"/>
<path d="M18701 2695 c-4 -5 -15 -46 -25 -90 -20 -93 -46 -207 -80 -355 -13
-58 -36 -159 -51 -225 -15 -66 -37 -165 -50 -220 -37 -160 -39 -149 22 -153
48 -3 53 -1 58 20 3 13 16 66 28 118 l23 95 157 3 156 3 10 -38 c5 -21 14 -63
20 -93 18 -103 23 -110 82 -110 l51 0 -7 43 c-3 23 -10 53 -15 67 -5 14 -14
52 -20 85 -6 33 -20 98 -31 145 -38 160 -59 255 -89 390 -17 74 -40 176 -52
227 l-21 92 -79 3 c-46 2 -83 -1 -87 -7z m139 -370 c17 -77 40 -178 51 -224
11 -46 18 -90 15 -98 -5 -11 -31 -13 -128 -11 l-123 3 3 30 c2 17 12 68 23
115 20 82 59 256 79 350 21 97 22 96 80 -165z"/>
<path d="M17695 2688 c-3 -7 -4 -242 -3 -523 l3 -510 53 -3 52 -3 0 230 c0
126 3 236 6 245 5 14 29 16 160 16 l154 0 0 -229 c0 -126 3 -236 6 -245 4 -12
20 -16 54 -16 34 0 50 4 54 16 3 9 6 238 6 509 0 271 -3 500 -6 509 -4 12 -20
16 -54 16 -34 0 -50 -4 -54 -16 -3 -9 -6 -114 -6 -235 l0 -219 -154 0 c-131 0
-155 2 -160 16 -3 9 -6 114 -6 235 l0 219 -50 0 c-31 0 -52 -5 -55 -12z"/>
<path d="M19340 2174 l0 -525 53 3 52 3 5 185 5 185 44 3 c61 4 88 -4 98 -30
4 -13 45 -96 91 -185 l83 -163 60 0 c32 0 59 2 59 5 0 3 -43 88 -95 189 -52
100 -95 186 -95 189 0 3 17 15 38 27 79 45 101 110 102 302 0 171 -11 220 -64
272 -57 57 -95 66 -280 66 l-156 0 0 -526z m329 414 c49 -34 56 -56 60 -186 4
-159 -3 -205 -39 -245 l-28 -32 -104 0 -103 0 -3 230 c-1 126 0 236 3 243 8
21 182 12 214 -10z"/>
<path d="M20130 2176 l0 -526 153 0 c179 0 238 13 296 65 66 60 71 91 71 460
0 342 -4 381 -50 445 -12 17 -40 40 -63 53 -38 20 -59 22 -224 25 l-183 4 0
-526z m325 420 c19 -8 44 -30 55 -48 19 -31 20 -50 20 -371 0 -302 -2 -342
-17 -368 -27 -45 -68 -59 -177 -59 l-96 0 0 430 0 430 90 0 c56 0 104 -5 125
-14z"/>
<path d="M20860 2685 c0 -8 9 -70 19 -137 11 -68 31 -202 45 -298 15 -96 38
-245 51 -331 14 -86 25 -170 25 -187 0 -17 4 -42 10 -56 9 -25 13 -26 85 -26
69 0 75 2 79 23 3 12 21 108 41 212 20 105 40 208 46 230 5 22 19 90 30 150
12 61 24 125 28 144 7 39 31 55 31 20 0 -12 4 -38 10 -58 5 -20 23 -110 41
-201 17 -91 46 -242 65 -335 19 -94 34 -174 34 -178 0 -4 36 -7 80 -7 l79 0 6
33 c3 17 10 64 14 102 8 65 38 270 61 410 5 33 16 110 25 170 8 61 20 135 25
165 5 30 12 81 16 113 l7 57 -52 0 c-33 0 -53 -5 -55 -12 -12 -43 -35 -189
-81 -523 -8 -55 -21 -138 -29 -185 -9 -47 -16 -98 -16 -115 l-1 -30 -14 30
c-7 17 -30 118 -50 225 -20 107 -42 224 -50 260 -8 36 -19 94 -26 130 -7 36
-19 99 -28 140 l-16 75 -60 0 -60 0 -22 -115 c-12 -63 -29 -149 -38 -190 -8
-41 -31 -158 -50 -260 -50 -260 -56 -285 -65 -269 -4 8 -18 79 -30 159 -12 80
-28 186 -35 235 -8 50 -19 126 -26 170 -6 44 -17 120 -25 169 -8 49 -14 93
-14 98 0 4 -25 8 -55 8 -42 0 -55 -4 -55 -15z"/>
<path d="M22174 2689 c-4 -7 -13 -39 -19 -73 -18 -84 -71 -324 -138 -616 -32
-138 -77 -340 -77 -346 0 -2 24 -4 54 -4 l55 0 16 78 c9 42 20 87 26 100 5 13
9 32 9 42 0 19 8 20 154 20 113 0 157 -3 163 -12 4 -7 17 -60 29 -118 l21
-105 58 -3 c56 -3 57 -2 52 20 -3 13 -17 75 -31 138 -14 63 -37 165 -52 225
-14 61 -31 139 -39 175 -7 36 -23 106 -34 155 -11 50 -30 133 -42 185 -36 160
-24 145 -116 148 -55 2 -84 -1 -89 -9z m132 -309 c19 -85 41 -186 49 -225 8
-38 19 -86 25 -105 18 -62 22 -60 -120 -60 -97 0 -130 3 -130 13 0 6 7 44 16
82 97 424 107 466 116 457 4 -4 24 -77 44 -162z"/>
<path d="M22815 2688 c-3 -7 -4 -242 -3 -523 l3 -510 55 0 55 0 5 185 5 185
57 3 c68 4 53 22 171 -208 l85 -165 56 -3 c37 -2 56 1 56 8 0 7 -41 93 -92
191 -50 100 -87 183 -82 188 5 4 26 19 47 35 69 51 77 80 77 290 0 177 -1 187
-24 228 -14 26 -42 55 -71 73 -48 30 -49 30 -222 33 -137 3 -174 1 -178 -10z
m332 -104 c47 -35 57 -68 61 -204 3 -103 0 -134 -15 -175 -25 -68 -59 -85
-175 -85 l-88 0 0 246 0 246 94 -4 c77 -2 100 -7 123 -24z"/>
<path d="M23595 2688 c-3 -7 -4 -242 -3 -523 l3 -510 238 -3 237 -2 0 44 c0
31 -5 46 -16 50 -9 3 -90 6 -180 6 l-164 0 2 193 3 192 138 3 137 3 0 44 0 45
-140 0 -140 0 0 190 0 190 170 0 170 0 0 45 0 45 -225 0 c-171 0 -227 -3 -230
-12z"/>
<path d="M25400 2655 l0 -45 99 0 c81 0 100 -3 105 -16 3 -9 6 -225 6 -480 l0
-464 55 0 55 0 0 480 0 480 105 0 105 0 0 45 0 45 -265 0 -265 0 0 -45z"/>
<path d="M26985 2688 c-3 -7 -4 -242 -3 -523 l3 -510 55 0 55 0 5 185 5 185
54 3 c30 2 59 -2 64 -7 6 -6 52 -91 103 -188 l92 -178 56 -3 c37 -2 56 1 56 8
0 7 -41 93 -92 192 l-92 181 22 16 c11 9 33 24 47 34 14 10 34 36 45 57 18 35
20 59 20 228 l0 188 -29 47 c-51 80 -86 91 -288 95 -137 3 -174 1 -178 -10z
m332 -104 c47 -35 57 -68 60 -204 6 -219 -24 -260 -189 -260 l-88 0 0 246 0
246 94 -4 c77 -2 100 -7 123 -24z"/>
<path d="M27765 2688 c-3 -7 -4 -242 -3 -523 l3 -510 238 -3 237 -2 0 44 c0
31 -5 46 -16 50 -9 3 -90 6 -180 6 l-164 0 2 193 3 192 138 3 137 3 0 44 0 45
-140 0 -140 0 0 190 0 190 170 0 170 0 0 45 0 45 -225 0 c-171 0 -227 -3 -230
-12z"/>
<path d="M16880 2185 l0 -45 240 0 240 0 0 45 0 45 -240 0 -240 0 0 -45z"/>
<path d="M28490 2185 l0 -45 240 0 240 0 0 45 0 45 -240 0 -240 0 0 -45z"/>
</g>
</svg>
